<?xml version="1.0" encoding="utf-8"?>
<!-- Generator: Adobe Adobe Illustrator 24.2.0, SVG Export Plug-In . SVG Version: 6.00 Build 0)  -->

<svg version="1.1" xmlns="http://www.w3.org/2000/svg" xmlns:xlink="http://www.w3.org/1999/xlink" x="0px" y="0px"
	 width="240px" height="200px" viewBox="0 0 708.66 498.9" style="enable-background:new 0 0 708.66 498.9;"
	 xml:space="preserve">


<style type="text/css">
	.gambo{fill:#8CC63F;stroke:#8CC63F;stroke-miterlimit:10;}
	.foglia_1{clip-path:url(#SVGID_2_);fill:#8CC63F;stroke:#8CC63F;stroke-miterlimit:10;}
	.foglia_2{clip-path:url(#SVGID_4_);fill:#8CC63F;stroke:#8CC63F;stroke-miterlimit:10;}
	.stami{fill:#FFD700;stroke:#FFD700;stroke-miterlimit:10;}
	.petali_medium{fill:#F5076A;stroke:#F5076A;stroke-miterlimit:10;}
</style>


<g id="gambo">
	<rect x="334.36" y="254.12" class="gambo" width="9" height="226"/>
</g>

<g id="foglie">
	<g>
		<g>
			<defs>
				<rect id="SVGID_1_" x="246.23" y="339.77" width="92.63" height="44.71"/>
			</defs>
			<clipPath id="SVGID_2_">
				<use xlink:href="#SVGID_1_"  style="overflow:visible;"/>
			</clipPath>
			<path class="foglia_1" d="M246.82,346.78c3.63-4.4,24.61-6.36,30.31-6.45c22.67-1.22,60.99,15.32,61.23,39.75
				c0.01,0.6-0.16,1.21-0.53,1.69c-8.38,10.76-91.11-20.57-91.11-34.99"/>
		</g>
		<g>
			<defs>
				<rect id="SVGID_3_" x="338.86" y="339.77" width="92.63" height="44.71"/>
			</defs>
			<clipPath id="SVGID_4_">
				<use xlink:href="#SVGID_3_"  style="overflow:visible;"/>
			</clipPath>
			<path class="foglia_2" d="M430.9,346.78c-3.63-4.4-24.61-6.36-30.31-6.45c-22.67-1.22-60.99,15.32-61.23,39.75
				c-0.01,0.6,0.16,1.21,0.53,1.69c8.38,10.76,91.11-20.57,91.11-34.99"/>
		</g>
	</g>
</g>

<g id="stami">
	<path class="stami" d="M314.54,138.02c3.62,5.97,5.91,12.76,6.64,19.7"/>
	<path class="stami" d="M336.46,137.51c1.13,6.84,1.6,13.79,1.42,20.72"/>
	<path class="stami" d="M349.52,154.78c3.74-5.26,6.96-10.88,9.62-16.76"/>
	<ellipse class="stami" cx="360.81" cy="135.02" rx="4" ry="4.5"/>
	<ellipse class="stami" cx="336.46" cy="135.02" rx="4.25" ry="4.5"/>
	<ellipse class="stami" cx="314.54" cy="136.85" rx="4" ry="4.5"/>
</g>

<g id="petali">
	<path class="petali_medium" d="M289.02,200.53v-50.08h100.64c1.85,0,3.36,2.03,3.36,4.53c0,0-0.73,28.94-0.73,38.59
		c0,35.28-21.21,63.89-47.38,63.89h-13.68C307.92,257.45,289.02,231.97,289.02,200.53z"/>
</g>

</svg>